<svg width="45" height="44" viewBox="0 0 45 44" fill="none" xmlns="http://www.w3.org/2000/svg">
<rect x="0.833374" y="0.5" width="43" height="43" rx="5.5" fill="#F7F7F8"/>
<rect x="0.833374" y="0.5" width="43" height="43" rx="5.5" stroke="#F1F1F3"/>
<g clip-path="url(#clip0_1_989)">
<path d="M30.8529 12H13.8099C12.9935 12 12.3334 12.6445 12.3334 13.4414V30.5547C12.3334 31.3516 12.9935 32 13.8099 32H30.8529C31.6693 32 32.3334 31.3516 32.3334 30.5586V13.4414C32.3334 12.6445 31.6693 12 30.8529 12ZM18.267 29.043H15.2982V19.4961H18.267V29.043ZM16.7826 18.1953C15.8295 18.1953 15.0599 17.4258 15.0599 16.4766C15.0599 15.5273 15.8295 14.7578 16.7826 14.7578C17.7318 14.7578 18.5013 15.5273 18.5013 16.4766C18.5013 17.4219 17.7318 18.1953 16.7826 18.1953ZM29.3763 29.043H26.4115V24.4023C26.4115 23.2969 26.392 21.8711 24.8685 21.8711C23.3256 21.8711 23.0912 23.0781 23.0912 24.3242V29.043H20.1302V19.4961H22.974V20.8008H23.0131C23.4076 20.0508 24.3763 19.2578 25.8177 19.2578C28.8217 19.2578 29.3763 21.2344 29.3763 23.8047V29.043Z" fill="#333333"/>
</g>
<defs>
<clipPath id="clip0_1_989">
<rect width="20" height="20" fill="white" transform="translate(12.3334 12)"/>
</clipPath>
</defs>
</svg>
