<svg width="45" height="44" viewBox="0 0 45 44" fill="none" xmlns="http://www.w3.org/2000/svg">
<rect x="0.833374" y="0.5" width="43" height="43" rx="5.5" fill="#F7F7F8"/>
<rect x="0.833374" y="0.5" width="43" height="43" rx="5.5" stroke="#F1F1F3"/>
<g clip-path="url(#clip0_1_983)">
<path d="M32.3334 22C32.3334 16.4771 27.8562 12 22.3334 12C16.8105 12 12.3334 16.4771 12.3334 22C12.3334 26.9912 15.9902 31.1283 20.7709 31.8785V24.8906H18.2318V22H20.7709V19.7969C20.7709 17.2906 22.2638 15.9062 24.548 15.9062C25.6418 15.9062 26.7865 16.1016 26.7865 16.1016V18.5625H25.5256C24.2834 18.5625 23.8959 19.3334 23.8959 20.125V22H26.6693L26.226 24.8906H23.8959V31.8785C28.6765 31.1283 32.3334 26.9912 32.3334 22Z" fill="#333333"/>
</g>
<defs>
<clipPath id="clip0_1_983">
<rect width="20" height="20" fill="white" transform="translate(12.3334 12)"/>
</clipPath>
</defs>
</svg>
