<svg width="45" height="44" viewBox="0 0 45 44" fill="none" xmlns="http://www.w3.org/2000/svg">
<rect x="0.833374" y="0.5" width="43" height="43" rx="5.5" fill="#F7F7F8"/>
<rect x="0.833374" y="0.5" width="43" height="43" rx="5.5" stroke="#F1F1F3"/>
<g clip-path="url(#clip0_1_986)">
<path d="M18.6252 30.125C26.1705 30.125 30.2986 23.8723 30.2986 18.4516C30.2986 18.2758 30.2947 18.0961 30.2869 17.9204C31.0899 17.3396 31.783 16.6203 32.3334 15.7961C31.5855 16.1289 30.7914 16.3462 29.9783 16.4407C30.8344 15.9275 31.4755 15.1213 31.7826 14.1715C30.9772 14.6489 30.0964 14.9856 29.1779 15.1672C28.5591 14.5097 27.7409 14.0743 26.8498 13.9284C25.9587 13.7825 25.0444 13.9343 24.2482 14.3601C23.4519 14.786 22.8182 15.4623 22.4449 16.2845C22.0716 17.1067 21.9796 18.0289 22.183 18.9086C20.5521 18.8268 18.9567 18.4031 17.5 17.6651C16.0434 16.9271 14.7581 15.8913 13.7275 14.6247C13.2037 15.5278 13.0434 16.5964 13.2792 17.6135C13.515 18.6305 14.1293 19.5196 14.997 20.1C14.3456 20.0794 13.7084 19.904 13.1381 19.5883V19.6391C13.1375 20.5869 13.4651 21.5055 14.0653 22.239C14.6655 22.9725 15.5011 23.4755 16.4302 23.6625C15.8268 23.8277 15.1934 23.8517 14.5791 23.7329C14.8413 24.5479 15.3514 25.2608 16.0382 25.772C16.725 26.2832 17.5543 26.5672 18.4103 26.5844C16.9571 27.726 15.1619 28.3452 13.3138 28.3422C12.9861 28.3417 12.6587 28.3216 12.3334 28.2821C14.2108 29.4865 16.3946 30.1262 18.6252 30.125Z" fill="#333333"/>
</g>
<defs>
<clipPath id="clip0_1_986">
<rect width="20" height="20" fill="white" transform="translate(12.3334 12)"/>
</clipPath>
</defs>
</svg>
